<svg width="25" height="24" viewBox="0 0 25 24" fill="none" xmlns="http://www.w3.org/2000/svg">
<path d="M7.20317 18.419C6.89344 18.73 6.39014 18.7305 6.07981 18.4201V18.4201C5.76947 18.1098 5.76996 17.6065 6.0809 17.2968L18.1309 5.29346L19.2065 6.369L7.20317 18.419Z" fill="black"/>
<path d="M19.5006 14.5289C19.5006 14.9879 19.1285 15.36 18.6695 15.36V15.36C18.2105 15.36 17.8384 14.9879 17.8384 14.5289V8.11185C17.8384 7.31124 17.1894 6.66222 16.3888 6.66222H9.97173C9.51273 6.66222 9.14062 6.29012 9.14062 5.83111V5.83111C9.14062 5.3721 9.51273 5 9.97173 5H17.774C18.7276 5 19.5006 5.77305 19.5006 6.72667V14.5289Z" fill="black"/>
</svg>
