<svg width="705" height="512" viewBox="0 0 705 512" fill="none" xmlns="http://www.w3.org/2000/svg">
<g clip-path="url(#clip0_88_14462)">
<path fill-rule="evenodd" clip-rule="evenodd" d="M588.18 84.654L556.686 73.7077L567.378 40.12L598.872 51.0663L588.18 84.654ZM28.2036 222.65L-35.655 253.795L-66.0771 185.692L-2.21844 154.547L28.2036 222.65ZM114.825 416.568L70.9958 318.452L149.039 280.389L119 213.144L-100.944 320.415L-70.9056 387.66L7.13725 349.597L50.9661 447.713L114.825 416.568ZM573.138 131.901L557.734 180.29L526.24 169.344L541.644 120.955L503.155 107.577L513.712 74.4126L622.185 112.114L611.628 145.279L573.138 131.901ZM684.469 299.207L687.928 323.435L672.16 325.893L668.7 301.666L649.429 304.67L647.058 288.065L701.369 279.598L703.74 296.203L684.469 299.207ZM681.091 275.551L665.322 278.009L662.921 261.193L678.69 258.734L681.091 275.551Z" fill="white"/>
</g>
<defs>
<clipPath id="clip0_88_14462">
<rect width="705" height="512" fill="white"/>
</clipPath>
</defs>
</svg>
