<svg width="1280" height="1114" viewBox="0 0 1280 1114" fill="none" xmlns="http://www.w3.org/2000/svg">
<path d="M1466.73 542.495C1362.97 511.094 1113.36 528.198 1196.67 793.825C1271.45 1032.23 1530.22 832.927 1314.18 732.158C1098.14 631.389 793.281 683.265 814.525 931.233" stroke="#EAEAEA" stroke-width="3" stroke-dasharray="10 10"/>
<path d="M88.0924 805.967L82.1521 824.396C81.8492 825.336 80.7665 825.769 79.8992 825.297L69.1087 819.428C68.5957 819.148 68.2791 818.609 68.286 818.025L68.3642 811.37C68.3701 810.87 68.1381 810.396 67.7391 810.095L66.767 809.359C65.9518 808.743 64.7744 809.053 64.3694 809.992L62.3962 814.564C62.1293 815.182 61.4945 815.558 60.8238 815.496C59.5997 815.381 58.7346 816.668 59.2991 817.76C59.6352 818.41 59.4737 819.208 58.9102 819.675L54.7755 823.102C54.0399 823.712 54.0117 824.831 54.7156 825.477L55.2476 825.965C55.6449 826.33 56.2009 826.466 56.7217 826.326L63.9068 824.398C64.429 824.258 64.9865 824.395 65.3838 824.762L74.2698 832.959C74.9994 833.632 74.9326 834.804 74.1312 835.39L57.7434 847.367C56.338 848.394 56.3208 850.486 57.7091 851.536C58.3769 852.041 59.2471 852.194 60.0467 851.945L85.2869 844.108C86.6924 843.671 88.221 843.914 89.4219 844.765L95.1482 848.822C95.6604 849.184 96.2399 849.441 96.8527 849.577L104.849 851.352C105.629 851.525 106.44 851.252 106.957 850.643C107.571 849.918 107.637 848.875 107.119 848.078L102.735 841.344C102.448 840.903 102.074 840.525 101.637 840.233L95.345 836.031C93.9997 835.132 93.2073 833.609 93.2442 831.991L93.8171 806.934C93.8386 805.991 93.4059 805.096 92.6541 804.527C91.0434 803.309 88.712 804.045 88.0924 805.967Z" stroke="#DEE4EB" stroke-width="3"/>
<path d="M77.3568 801.633L63.5938 791.021" stroke="#DEE4EB" stroke-width="3" stroke-linecap="round"/>
<path d="M50.7513 838.405L36.9883 827.793" stroke="#DEE4EB" stroke-width="3" stroke-linecap="round"/>
<path d="M44.9709 805.193C-48.9864 751.108 -207.517 557.543 43.0725 436.28C267.976 327.447 300.044 652.49 78.6418 564.131C-142.76 475.772 -313.805 218.136 -118.602 63.7494" stroke="#EAEAEA" stroke-width="3" stroke-dasharray="10 10"/>
</svg>
