<svg width="350" height="691" viewBox="0 0 350 691" fill="none" xmlns="http://www.w3.org/2000/svg">
<path d="M110.197 597.731C-63.0757 626.086 -186.206 471.357 -13.8039 285.327C140.927 118.366 275.973 383.535 58.7934 382.012C-158.387 380.489 -388.995 218.624 -274.58 22.8615" stroke="#EEF2F7" stroke-width="4" stroke-dasharray="15.76 15.76"/>
<path d="M147.641 544.69L166.784 569.127C167.393 569.904 167.145 571.044 166.268 571.498L149.02 580.437C148.502 580.706 147.877 580.666 147.397 580.333L138.67 574.282C138.258 573.997 137.736 573.924 137.263 574.086L134.312 575.092C133.345 575.422 132.942 576.572 133.493 577.433L138.232 584.843C138.6 585.419 138.555 586.165 138.122 586.693L136.965 588.1C136.174 589.063 136.761 590.52 137.998 590.666L139.872 590.887C140.608 590.974 141.184 591.561 141.256 592.298L142.166 601.589C142.259 602.539 143.17 603.189 144.1 602.968L146.361 602.43C146.885 602.305 147.31 601.92 147.485 601.411L151.325 590.285C151.501 589.774 151.927 589.389 152.453 589.265L171.056 584.886C172.022 584.658 172.955 585.37 172.992 586.362L174.154 618.028C174.231 620.139 176.322 621.578 178.321 620.896L179.503 620.493C180.465 620.165 181.209 619.393 181.503 618.421L193.172 579.794C193.597 578.385 194.655 577.254 196.032 576.736L206.732 572.709C207.597 572.383 208.388 571.889 209.059 571.253L217.816 562.965C218.67 562.157 219.005 560.942 218.688 559.81C218.311 558.462 217.093 557.522 215.694 557.498L203.867 557.292C203.093 557.279 202.325 557.423 201.608 557.715L190.16 562.387C188.663 562.999 186.956 562.802 185.637 561.865L154.066 539.453C153.24 538.867 152.182 538.714 151.224 539.041L149.104 539.763C147.051 540.464 146.303 542.982 147.641 544.69Z" stroke="#EEF2F7" stroke-width="4"/>
<path d="M134.517 555.501L110.229 563.536" stroke="#EEF2F7" stroke-width="4" stroke-linecap="round"/>
<path d="M157.427 618.262L133.139 626.297" stroke="#EEF2F7" stroke-width="4" stroke-linecap="round"/>
</svg>
